<svg width="25" height="25" viewBox="0 0 25 25" fill="none" xmlns="http://www.w3.org/2000/svg">
<g clip-path="url(#clip0)">
<path d="M25 12.5C25 17.9258 21.5443 22.5645 16.6666 24.2886C16.1589 24.468 15.6004 24.2023 15.4203 23.6933C15.2407 23.1848 15.5073 22.6267 16.0158 22.447C20.2213 20.9606 23.0469 16.9632 23.0469 12.5C23.0469 7.53422 19.6445 3.47118 15.206 2.3016L17.0317 4.12731C17.4129 4.50859 17.4129 5.12695 17.0317 5.50823C16.6502 5.88951 16.032 5.8897 15.6506 5.50823L11.8093 1.66702C11.1952 1.05286 11.6325 0 12.5 0C19.4094 0 25 5.59158 25 12.5ZM9.34944 19.4918C8.96797 19.1103 8.3498 19.1103 7.96833 19.4918C7.58705 19.873 7.58705 20.4914 7.96833 20.8727L9.79404 22.6984C5.35545 21.5288 1.95312 17.4658 1.95312 12.5C1.95312 8.0368 4.77867 4.03938 8.98438 2.55299C9.49287 2.37331 9.75933 1.81541 9.57966 1.30692C9.39999 0.798416 8.84209 0.531769 8.3334 0.711632C3.45573 2.43549 0 7.07417 0 12.5C0 19.4084 5.59063 25 12.5 25C13.3675 25 13.8048 23.9471 13.1905 23.333L9.34944 19.4918ZM12.5 7.68223C15.1566 7.68223 17.3178 9.84344 17.3178 12.5C17.3178 15.1566 15.1566 17.3178 12.5 17.3178C9.84344 17.3178 7.68223 15.1566 7.68223 12.5C7.68223 9.84344 9.84344 7.68223 12.5 7.68223ZM9.63535 12.5C9.63535 14.0795 10.9205 15.3646 12.5 15.3646C14.0795 15.3646 15.3646 14.0795 15.3646 12.5C15.3646 10.9205 14.0795 9.63535 12.5 9.63535C10.9205 9.63535 9.63535 10.9205 9.63535 12.5Z" fill="url(#paint0_linear)"/>
</g>
<defs>
<linearGradient id="paint0_linear" x1="0" y1="12.5" x2="25" y2="12.5" gradientUnits="userSpaceOnUse">
<stop stop-color="#80D8FF"/>
<stop offset="1" stop-color="#EA80FC"/>
</linearGradient>
<clipPath id="clip0">
<rect width="25" height="25" fill="white"/>
</clipPath>
</defs>
</svg>
