<svg width="25" height="25" viewBox="0 0 25 25" fill="none" xmlns="http://www.w3.org/2000/svg">
<rect width="25" height="25" fill="#E5E5E5"/>
<rect width="1440" height="1024" transform="translate(-439 -397)" fill="#F5F7F8"/>
<rect x="-8.5" y="-12.5" width="393" height="47" rx="4.5" fill="white" stroke="#666666"/>
<path d="M-8.5 -8C-8.5 -10.4853 -6.48528 -12.5 -4 -12.5H34.5V34.5H-4C-6.48528 34.5 -8.5 32.4853 -8.5 30V-8Z" fill="white" stroke="#666666"/>
<path d="M18.4909 1.93965C18.2905 0.957327 17.4203 0.215517 16.3793 0.215517C16.1414 0.215517 15.9483 0.408189 15.9483 0.646552C15.9483 0.884914 16.1414 1.07759 16.3793 1.07759C17.0922 1.07759 17.6724 1.65776 17.6724 2.37069C17.6724 3.08362 17.0922 3.66379 16.3793 3.66379C16.1414 3.66379 15.9483 3.85647 15.9483 4.09483C15.9483 4.33319 16.1414 4.52586 16.3793 4.52586C17.4198 4.52586 18.2905 3.78405 18.4909 2.80172H24.1379V5.81897H18.9655H18.1034H12.931H12.069H6.89655H6.03448H0.862069V2.80172H6.89655H8.18966C8.42759 2.80172 8.62069 2.60905 8.62069 2.37069C8.62069 2.13233 8.42759 1.93965 8.18966 1.93965H7.4069C7.58534 1.43879 8.05948 1.07759 8.62069 1.07759C9.33362 1.07759 9.91379 1.65776 9.91379 2.37069C9.91379 3.08362 9.33362 3.66379 8.62069 3.66379C8.38276 3.66379 8.18966 3.85647 8.18966 4.09483C8.18966 4.33319 8.38276 4.52586 8.62069 4.52586C9.80905 4.52586 10.7759 3.55905 10.7759 2.37069C10.7759 1.18233 9.80905 0.215517 8.62069 0.215517C7.58017 0.215517 6.70948 0.957327 6.50905 1.93965H0V5.81897V7.11207V11.8534V12.7155V17.8879V18.75V24.7845H6.03448H6.89655H12.069H12.931H18.1034H18.9655H25V18.75V17.8879V12.7155V11.8534V7.11207V5.81897V1.93965H18.4909ZM12.931 6.68103H18.1034V11.8534H12.931V6.68103ZM18.1034 17.8879H12.931V12.7155H18.1034V17.8879ZM6.89655 12.7155H12.069V17.8879H6.89655V12.7155ZM6.89655 6.68103H12.069V11.8534H6.89655V6.68103ZM0.862069 7.11207V6.68103H6.03448V11.8534H0.862069V7.11207ZM0.862069 12.7155H6.03448V17.8879H0.862069V12.7155ZM0.862069 23.9224V18.75H6.03448V23.9224H0.862069ZM6.89655 23.9224V18.75H12.069V23.9224H6.89655ZM12.931 23.9224V18.75H18.1034V23.9224H12.931ZM24.1379 23.9224H18.9655V18.75H24.1379V23.9224ZM24.1379 17.8879H18.9655V12.7155H24.1379V17.8879ZM18.9655 11.8534V6.68103H24.1379V7.11207V11.8534H18.9655Z" fill="black"/>
<path d="M18.4909 1.93965C18.2905 0.957327 17.4203 0.215517 16.3793 0.215517C16.1414 0.215517 15.9483 0.408189 15.9483 0.646552C15.9483 0.884914 16.1414 1.07759 16.3793 1.07759C17.0922 1.07759 17.6724 1.65776 17.6724 2.37069C17.6724 3.08362 17.0922 3.66379 16.3793 3.66379C16.1414 3.66379 15.9483 3.85647 15.9483 4.09483C15.9483 4.33319 16.1414 4.52586 16.3793 4.52586C17.4198 4.52586 18.2905 3.78405 18.4909 2.80172H24.1379V5.81897H18.9655H18.1034H12.931H12.069H6.89655H6.03448H0.862069V2.80172H6.89655H8.18966C8.42759 2.80172 8.62069 2.60905 8.62069 2.37069C8.62069 2.13233 8.42759 1.93965 8.18966 1.93965H7.4069C7.58534 1.43879 8.05948 1.07759 8.62069 1.07759C9.33362 1.07759 9.91379 1.65776 9.91379 2.37069C9.91379 3.08362 9.33362 3.66379 8.62069 3.66379C8.38276 3.66379 8.18966 3.85647 8.18966 4.09483C8.18966 4.33319 8.38276 4.52586 8.62069 4.52586C9.80905 4.52586 10.7759 3.55905 10.7759 2.37069C10.7759 1.18233 9.80905 0.215517 8.62069 0.215517C7.58017 0.215517 6.70948 0.957327 6.50905 1.93965H0V5.81897V7.11207V11.8534V12.7155V17.8879V18.75V24.7845H6.03448H6.89655H12.069H12.931H18.1034H18.9655H25V18.75V17.8879V12.7155V11.8534V7.11207V5.81897V1.93965H18.4909ZM12.931 6.68103H18.1034V11.8534H12.931V6.68103ZM18.1034 17.8879H12.931V12.7155H18.1034V17.8879ZM6.89655 12.7155H12.069V17.8879H6.89655V12.7155ZM6.89655 6.68103H12.069V11.8534H6.89655V6.68103ZM0.862069 7.11207V6.68103H6.03448V11.8534H0.862069V7.11207ZM0.862069 12.7155H6.03448V17.8879H0.862069V12.7155ZM0.862069 23.9224V18.75H6.03448V23.9224H0.862069ZM6.89655 23.9224V18.75H12.069V23.9224H6.89655ZM12.931 23.9224V18.75H18.1034V23.9224H12.931ZM24.1379 23.9224H18.9655V18.75H24.1379V23.9224ZM24.1379 17.8879H18.9655V12.7155H24.1379V17.8879ZM18.9655 11.8534V6.68103H24.1379V7.11207V11.8534H18.9655Z" fill="url(#paint0_linear)"/>
<path d="M11.2069 1.07759C11.9198 1.07759 12.5 1.65776 12.5 2.37069C12.5 3.08362 11.9198 3.66379 11.2069 3.66379C10.969 3.66379 10.7759 3.85647 10.7759 4.09483C10.7759 4.33319 10.969 4.52586 11.2069 4.52586C12.3953 4.52586 13.3621 3.55905 13.3621 2.37069C13.3621 1.18233 12.3953 0.215517 11.2069 0.215517C10.969 0.215517 10.7759 0.408189 10.7759 0.646552C10.7759 0.884914 10.969 1.07759 11.2069 1.07759Z" fill="black"/>
<path d="M11.2069 1.07759C11.9198 1.07759 12.5 1.65776 12.5 2.37069C12.5 3.08362 11.9198 3.66379 11.2069 3.66379C10.969 3.66379 10.7759 3.85647 10.7759 4.09483C10.7759 4.33319 10.969 4.52586 11.2069 4.52586C12.3953 4.52586 13.3621 3.55905 13.3621 2.37069C13.3621 1.18233 12.3953 0.215517 11.2069 0.215517C10.969 0.215517 10.7759 0.408189 10.7759 0.646552C10.7759 0.884914 10.969 1.07759 11.2069 1.07759Z" fill="url(#paint1_linear)"/>
<path d="M13.7931 1.07759C14.506 1.07759 15.0862 1.65776 15.0862 2.37069C15.0862 3.08362 14.506 3.66379 13.7931 3.66379C13.5552 3.66379 13.3621 3.85647 13.3621 4.09483C13.3621 4.33319 13.5552 4.52586 13.7931 4.52586C14.9815 4.52586 15.9483 3.55905 15.9483 2.37069C15.9483 1.18233 14.9815 0.215517 13.7931 0.215517C13.5552 0.215517 13.3621 0.408189 13.3621 0.646552C13.3621 0.884914 13.5552 1.07759 13.7931 1.07759Z" fill="black"/>
<path d="M13.7931 1.07759C14.506 1.07759 15.0862 1.65776 15.0862 2.37069C15.0862 3.08362 14.506 3.66379 13.7931 3.66379C13.5552 3.66379 13.3621 3.85647 13.3621 4.09483C13.3621 4.33319 13.5552 4.52586 13.7931 4.52586C14.9815 4.52586 15.9483 3.55905 15.9483 2.37069C15.9483 1.18233 14.9815 0.215517 13.7931 0.215517C13.5552 0.215517 13.3621 0.408189 13.3621 0.646552C13.3621 0.884914 13.5552 1.07759 13.7931 1.07759Z" fill="url(#paint2_linear)"/>
<path d="M13.4884 17.3306C13.5724 17.4147 13.6828 17.4569 13.7931 17.4569C13.9034 17.4569 14.0138 17.4147 14.0978 17.3306L15.5172 15.9112L16.9366 17.3306C17.0207 17.4147 17.131 17.4569 17.2414 17.4569C17.3517 17.4569 17.4621 17.4147 17.5461 17.3306C17.7146 17.1621 17.7146 16.8897 17.5461 16.7211L16.1267 15.3017L17.5461 13.8823C17.7146 13.7138 17.7146 13.4414 17.5461 13.2728C17.3776 13.1043 17.1052 13.1043 16.9366 13.2728L15.5172 14.6922L14.0978 13.2728C13.9293 13.1043 13.6569 13.1043 13.4884 13.2728C13.3198 13.4414 13.3198 13.7138 13.4884 13.8823L14.9078 15.3017L13.4884 16.7211C13.3198 16.8897 13.3198 17.1621 13.4884 17.3306Z" fill="black"/>
<path d="M13.4884 17.3306C13.5724 17.4147 13.6828 17.4569 13.7931 17.4569C13.9034 17.4569 14.0138 17.4147 14.0978 17.3306L15.5172 15.9112L16.9366 17.3306C17.0207 17.4147 17.131 17.4569 17.2414 17.4569C17.3517 17.4569 17.4621 17.4147 17.5461 17.3306C17.7146 17.1621 17.7146 16.8897 17.5461 16.7211L16.1267 15.3017L17.5461 13.8823C17.7146 13.7138 17.7146 13.4414 17.5461 13.2728C17.3776 13.1043 17.1052 13.1043 16.9366 13.2728L15.5172 14.6922L14.0978 13.2728C13.9293 13.1043 13.6569 13.1043 13.4884 13.2728C13.3198 13.4414 13.3198 13.7138 13.4884 13.8823L14.9078 15.3017L13.4884 16.7211C13.3198 16.8897 13.3198 17.1621 13.4884 17.3306Z" fill="url(#paint3_linear)"/>
<defs>
<linearGradient id="paint0_linear" x1="12.5" y1="0.215517" x2="12.5" y2="24.7845" gradientUnits="userSpaceOnUse">
<stop stop-color="#FF5FF9"/>
<stop offset="1" stop-color="#5BCEDE"/>
</linearGradient>
<linearGradient id="paint1_linear" x1="12.069" y1="0.215517" x2="12.069" y2="4.52586" gradientUnits="userSpaceOnUse">
<stop stop-color="#FF5FF9"/>
<stop offset="1" stop-color="#5BCEDE"/>
</linearGradient>
<linearGradient id="paint2_linear" x1="14.6552" y1="0.215517" x2="14.6552" y2="4.52586" gradientUnits="userSpaceOnUse">
<stop stop-color="#FF5FF9"/>
<stop offset="1" stop-color="#5BCEDE"/>
</linearGradient>
<linearGradient id="paint3_linear" x1="15.5172" y1="13.1464" x2="15.5172" y2="17.4569" gradientUnits="userSpaceOnUse">
<stop stop-color="#FF5FF9"/>
<stop offset="1" stop-color="#5BCEDE"/>
</linearGradient>
</defs>
</svg>
