<svg width="175" height="175" viewBox="0 0 175 175" fill="none" xmlns="http://www.w3.org/2000/svg">
<path d="M87.5 175C39.253 175 0 135.747 0 87.5C0 39.253 39.253 0 87.5 0C135.747 0 175 39.253 175 87.5C175 135.747 135.747 175 87.5 175ZM87.5 5.30303C42.175 5.30303 5.30303 42.175 5.30303 87.5C5.30303 132.825 42.175 169.697 87.5 169.697C132.825 169.697 169.697 132.825 169.697 87.5C169.697 42.175 132.825 5.30303 87.5 5.30303Z" fill="url(#paint0_linear)"/>
<path d="M87.5 175C39.253 175 0 135.747 0 87.5C0 39.253 39.253 0 87.5 0C135.747 0 175 39.253 175 87.5C175 135.747 135.747 175 87.5 175ZM87.5 5.30303C42.175 5.30303 5.30303 42.175 5.30303 87.5C5.30303 132.825 42.175 169.697 87.5 169.697C132.825 169.697 169.697 132.825 169.697 87.5C169.697 42.175 132.825 5.30303 87.5 5.30303Z" fill="url(#paint1_linear)"/>
<path d="M87.5 175C69.2841 175 51.7788 169.389 36.8614 158.773C36.0659 158.205 35.6417 157.235 35.7689 156.264C35.8962 155.294 36.5538 154.467 37.4765 154.127C59.4629 145.987 63.0106 139.38 63.0106 126.716C63.0106 123.37 62.2576 122.272 60.9 120.278C59.1023 117.658 56.6416 114.068 54.9129 104.692C54.6583 103.345 54.4409 103.239 53.2371 102.656C50.0235 101.108 47.0697 98.8803 46.2954 88.7197C46.2954 83.7985 47.9924 81.0781 49.3977 79.6622C49.0901 77.9122 48.5863 74.8947 48.1144 71.6068C45.7121 56.8803 45.606 38.8447 66.3197 30.4606C84.3712 23.1425 98.7795 27.1409 103.303 31.9084C106.506 32.0091 114.768 32.847 120.517 39.5341C129.362 49.822 126.546 73.2773 125.581 79.6356C126.992 81.0197 128.705 83.7031 128.705 88.5182C127.93 98.8803 124.976 101.113 121.758 102.656C120.548 103.239 120.331 103.34 120.082 104.692C118.353 114.068 115.898 117.658 114.1 120.278C112.737 122.267 111.989 123.37 111.989 126.716C111.989 139.38 115.537 145.987 137.523 154.127C138.446 154.467 139.104 155.289 139.231 156.264C139.358 157.24 138.934 158.205 138.139 158.773C123.221 169.389 105.716 175 87.5 175ZM44.1053 157.24C57.1613 165.407 72.0629 169.697 87.5 169.697C102.937 169.697 117.839 165.407 130.895 157.24C112.472 149.678 106.686 142.052 106.686 126.721C106.686 121.731 108.161 119.573 109.725 117.287C111.337 114.933 113.342 112.005 114.874 103.733C115.611 99.7341 117.929 98.6205 119.461 97.8834C121.111 97.0932 122.808 96.2765 123.407 88.322C123.401 84.2705 121.583 83.1675 121.508 83.125C120.533 82.5629 119.901 81.3803 120.108 80.2773C121.423 73.2296 123.587 51.2485 116.497 42.9917C111.655 37.3599 104.024 37.2061 102.571 37.2644C102.327 37.2432 102.089 37.2379 101.861 37.1796C101.171 37.0046 100.005 36.4053 99.6492 35.7902C98.2068 33.319 85.6439 28.35 68.3083 35.3659C51.1742 42.3023 51.1371 57.172 53.3591 70.8008C54.0909 75.8758 54.8917 80.2614 54.897 80.2826C55.1144 81.4758 54.4939 82.6637 53.3962 83.1674C53.4121 83.1674 51.5985 84.2758 51.5985 88.5129C52.1924 96.2606 53.8947 97.0826 55.5386 97.8727C57.0712 98.6099 59.3939 99.7235 60.131 103.722C61.6583 111.995 63.6629 114.922 65.275 117.277C66.8447 119.562 68.3189 121.72 68.3189 126.711C68.3189 142.058 62.5333 149.683 44.1053 157.24Z" fill="url(#paint2_linear)"/>
<path d="M87.5 175C69.2841 175 51.7788 169.389 36.8614 158.773C36.0659 158.205 35.6417 157.235 35.7689 156.264C35.8962 155.294 36.5538 154.467 37.4765 154.127C59.4629 145.987 63.0106 139.38 63.0106 126.716C63.0106 123.37 62.2576 122.272 60.9 120.278C59.1023 117.658 56.6416 114.068 54.9129 104.692C54.6583 103.345 54.4409 103.239 53.2371 102.656C50.0235 101.108 47.0697 98.8803 46.2954 88.7197C46.2954 83.7985 47.9924 81.0781 49.3977 79.6622C49.0901 77.9122 48.5863 74.8947 48.1144 71.6068C45.7121 56.8803 45.606 38.8447 66.3197 30.4606C84.3712 23.1425 98.7795 27.1409 103.303 31.9084C106.506 32.0091 114.768 32.847 120.517 39.5341C129.362 49.822 126.546 73.2773 125.581 79.6356C126.992 81.0197 128.705 83.7031 128.705 88.5182C127.93 98.8803 124.976 101.113 121.758 102.656C120.548 103.239 120.331 103.34 120.082 104.692C118.353 114.068 115.898 117.658 114.1 120.278C112.737 122.267 111.989 123.37 111.989 126.716C111.989 139.38 115.537 145.987 137.523 154.127C138.446 154.467 139.104 155.289 139.231 156.264C139.358 157.24 138.934 158.205 138.139 158.773C123.221 169.389 105.716 175 87.5 175ZM44.1053 157.24C57.1613 165.407 72.0629 169.697 87.5 169.697C102.937 169.697 117.839 165.407 130.895 157.24C112.472 149.678 106.686 142.052 106.686 126.721C106.686 121.731 108.161 119.573 109.725 117.287C111.337 114.933 113.342 112.005 114.874 103.733C115.611 99.7341 117.929 98.6205 119.461 97.8834C121.111 97.0932 122.808 96.2765 123.407 88.322C123.401 84.2705 121.583 83.1675 121.508 83.125C120.533 82.5629 119.901 81.3803 120.108 80.2773C121.423 73.2296 123.587 51.2485 116.497 42.9917C111.655 37.3599 104.024 37.2061 102.571 37.2644C102.327 37.2432 102.089 37.2379 101.861 37.1796C101.171 37.0046 100.005 36.4053 99.6492 35.7902C98.2068 33.319 85.6439 28.35 68.3083 35.3659C51.1742 42.3023 51.1371 57.172 53.3591 70.8008C54.0909 75.8758 54.8917 80.2614 54.897 80.2826C55.1144 81.4758 54.4939 82.6637 53.3962 83.1674C53.4121 83.1674 51.5985 84.2758 51.5985 88.5129C52.1924 96.2606 53.8947 97.0826 55.5386 97.8727C57.0712 98.6099 59.3939 99.7235 60.131 103.722C61.6583 111.995 63.6629 114.922 65.275 117.277C66.8447 119.562 68.3189 121.72 68.3189 126.711C68.3189 142.058 62.5333 149.683 44.1053 157.24Z" fill="url(#paint3_linear)"/>
<defs>
<linearGradient id="paint0_linear" x1="87.5" y1="0" x2="87.5" y2="175" gradientUnits="userSpaceOnUse">
<stop stop-color="#FF5FF9"/>
<stop offset="1" stop-color="#5BCEDE"/>
</linearGradient>
<linearGradient id="paint1_linear" x1="87.5" y1="0" x2="87.5" y2="175" gradientUnits="userSpaceOnUse">
<stop stop-color="white"/>
<stop offset="1" stop-color="white" stop-opacity="0"/>
</linearGradient>
<linearGradient id="paint2_linear" x1="87.5" y1="26.4355" x2="87.5" y2="175" gradientUnits="userSpaceOnUse">
<stop stop-color="#FF5FF9"/>
<stop offset="1" stop-color="#5BCEDE"/>
</linearGradient>
<linearGradient id="paint3_linear" x1="87.5" y1="26.4355" x2="87.5" y2="175" gradientUnits="userSpaceOnUse">
<stop stop-color="white"/>
<stop offset="1" stop-color="white" stop-opacity="0"/>
</linearGradient>
</defs>
</svg>
