<svg width="25" height="19" viewBox="0 0 25 19" fill="none" xmlns="http://www.w3.org/2000/svg">
<path d="M20.2414 14.3401C20.1422 14.3401 20.0431 14.3038 19.9657 14.2304L15.3272 9.87889C15.1651 9.72733 15.1571 9.47179 15.3094 9.30975C15.4618 9.14611 15.7157 9.13885 15.8794 9.29202L20.5179 13.6436C20.6799 13.7951 20.688 14.0507 20.5356 14.2127C20.4558 14.2973 20.3494 14.3401 20.2414 14.3401Z" fill="black"/>
<path d="M20.2414 14.3401C20.1422 14.3401 20.0431 14.3038 19.9657 14.2304L15.3272 9.87889C15.1651 9.72733 15.1571 9.47179 15.3094 9.30975C15.4618 9.14611 15.7157 9.13885 15.8794 9.29202L20.5179 13.6436C20.6799 13.7951 20.688 14.0507 20.5356 14.2127C20.4558 14.2973 20.3494 14.3401 20.2414 14.3401Z" fill="url(#paint0_linear)"/>
<path d="M4.75784 14.3403C4.65062 14.3403 4.54341 14.2976 4.4636 14.2129C4.31124 14.0509 4.3193 13.7953 4.48133 13.6438L9.12147 9.29224C9.28431 9.14068 9.53986 9.14713 9.69141 9.30997C9.84377 9.47201 9.83571 9.72755 9.67368 9.87911L5.03354 14.2306C4.95615 14.304 4.85699 14.3403 4.75784 14.3403Z" fill="black"/>
<path d="M4.75784 14.3403C4.65062 14.3403 4.54341 14.2976 4.4636 14.2129C4.31124 14.0509 4.3193 13.7953 4.48133 13.6438L9.12147 9.29224C9.28431 9.14068 9.53986 9.14713 9.69141 9.30997C9.84377 9.47201 9.83571 9.72755 9.67368 9.87911L5.03354 14.2306C4.95615 14.304 4.85699 14.3403 4.75784 14.3403Z" fill="url(#paint1_linear)"/>
<path d="M22.9847 18.3861H2.01535C0.904489 18.3861 0 17.4824 0 16.3707V2.62847C0 1.5168 0.904489 0.613117 2.01535 0.613117H22.9847C24.0955 0.613117 25 1.5168 25 2.62847V16.3707C25 17.4824 24.0955 18.3861 22.9847 18.3861ZM2.01535 1.41926C1.34867 1.41926 0.80614 1.96179 0.80614 2.62847V16.3707C0.80614 17.0374 1.34867 17.5799 2.01535 17.5799H22.9847C23.6513 17.5799 24.1939 17.0374 24.1939 16.3707V2.62847C24.1939 1.96179 23.6513 1.41926 22.9847 1.41926H2.01535Z" fill="black"/>
<path d="M22.9847 18.3861H2.01535C0.904489 18.3861 0 17.4824 0 16.3707V2.62847C0 1.5168 0.904489 0.613117 2.01535 0.613117H22.9847C24.0955 0.613117 25 1.5168 25 2.62847V16.3707C25 17.4824 24.0955 18.3861 22.9847 18.3861ZM2.01535 1.41926C1.34867 1.41926 0.80614 1.96179 0.80614 2.62847V16.3707C0.80614 17.0374 1.34867 17.5799 2.01535 17.5799H22.9847C23.6513 17.5799 24.1939 17.0374 24.1939 16.3707V2.62847C24.1939 1.96179 23.6513 1.41926 22.9847 1.41926H2.01535Z" fill="url(#paint2_linear)"/>
<path d="M12.5 11.525C11.9639 11.525 11.4278 11.3469 11.0199 10.9914L0.669086 1.96179C0.501409 1.81588 0.483674 1.56114 0.629585 1.39265C0.777109 1.22498 1.03104 1.20966 1.19872 1.35396L11.5496 10.3827C12.0647 10.8317 12.9353 10.8317 13.4496 10.3827L23.7876 1.36847C23.9544 1.22256 24.2084 1.23868 24.3567 1.40716C24.5026 1.57565 24.4857 1.82958 24.318 1.9763L13.9801 10.9906C13.5713 11.3469 13.0361 11.525 12.5 11.525Z" fill="black"/>
<path d="M12.5 11.525C11.9639 11.525 11.4278 11.3469 11.0199 10.9914L0.669086 1.96179C0.501409 1.81588 0.483674 1.56114 0.629585 1.39265C0.777109 1.22498 1.03104 1.20966 1.19872 1.35396L11.5496 10.3827C12.0647 10.8317 12.9353 10.8317 13.4496 10.3827L23.7876 1.36847C23.9544 1.22256 24.2084 1.23868 24.3567 1.40716C24.5026 1.57565 24.4857 1.82958 24.318 1.9763L13.9801 10.9906C13.5713 11.3469 13.0361 11.525 12.5 11.525Z" fill="url(#paint3_linear)"/>
<defs>
<linearGradient id="paint0_linear" x1="17.9225" y1="9.1819" x2="17.9225" y2="14.3401" gradientUnits="userSpaceOnUse">
<stop stop-color="#FF5FF9"/>
<stop offset="1" stop-color="#5BCEDE"/>
</linearGradient>
<linearGradient id="paint1_linear" x1="7.07751" y1="9.18303" x2="7.07751" y2="14.3403" gradientUnits="userSpaceOnUse">
<stop stop-color="#FF5FF9"/>
<stop offset="1" stop-color="#5BCEDE"/>
</linearGradient>
<linearGradient id="paint2_linear" x1="12.5" y1="0.613117" x2="12.5" y2="18.3861" gradientUnits="userSpaceOnUse">
<stop stop-color="#FF5FF9"/>
<stop offset="1" stop-color="#5BCEDE"/>
</linearGradient>
<linearGradient id="paint3_linear" x1="12.4933" y1="1.25544" x2="12.4933" y2="11.525" gradientUnits="userSpaceOnUse">
<stop stop-color="#FF5FF9"/>
<stop offset="1" stop-color="#5BCEDE"/>
</linearGradient>
</defs>
</svg>
