<svg width="17" height="25" viewBox="0 0 17 25" fill="none" xmlns="http://www.w3.org/2000/svg">
<path d="M14.969 0H2.031C1.15824 0 0.448288 0.710009 0.448288 1.58277V23.4173C0.448288 24.29 1.1583 25.0001 2.03106 25.0001H14.969C15.8418 25.0001 16.5518 24.29 16.5518 23.4173V1.58277C16.5517 0.710009 15.8418 0 14.969 0ZM1.24142 3.97812H15.7586V20.5115H1.24142V3.97812ZM2.031 0.793129H14.969C15.4044 0.793129 15.7586 1.14734 15.7586 1.58277V3.44937H1.24142V1.58277C1.24142 1.14734 1.59563 0.793129 2.031 0.793129ZM14.969 24.2069H2.031C1.59563 24.2069 1.24136 23.8527 1.24136 23.4172V21.0402H15.7586V23.4172C15.7586 23.8527 15.4044 24.2069 14.969 24.2069Z" fill="black"/>
<path d="M14.969 0H2.031C1.15824 0 0.448288 0.710009 0.448288 1.58277V23.4173C0.448288 24.29 1.1583 25.0001 2.03106 25.0001H14.969C15.8418 25.0001 16.5518 24.29 16.5518 23.4173V1.58277C16.5517 0.710009 15.8418 0 14.969 0ZM1.24142 3.97812H15.7586V20.5115H1.24142V3.97812ZM2.031 0.793129H14.969C15.4044 0.793129 15.7586 1.14734 15.7586 1.58277V3.44937H1.24142V1.58277C1.24142 1.14734 1.59563 0.793129 2.031 0.793129ZM14.969 24.2069H2.031C1.59563 24.2069 1.24136 23.8527 1.24136 23.4172V21.0402H15.7586V23.4172C15.7586 23.8527 15.4044 24.2069 14.969 24.2069Z" fill="url(#paint0_linear)"/>
<path d="M8.50003 21.3908C7.78384 21.3908 7.2012 21.9735 7.2012 22.6897C7.2012 23.4059 7.78389 23.9885 8.50003 23.9885C9.21617 23.9885 9.79886 23.4058 9.79886 22.6897C9.79886 21.9735 9.21623 21.3908 8.50003 21.3908ZM8.50003 23.4597C8.07539 23.4597 7.72995 23.1143 7.72995 22.6897C7.72995 22.265 8.07539 21.9195 8.50003 21.9195C8.92467 21.9195 9.27011 22.265 9.27011 22.6897C9.27011 23.1143 8.92467 23.4597 8.50003 23.4597Z" fill="black"/>
<path d="M8.50003 21.3908C7.78384 21.3908 7.2012 21.9735 7.2012 22.6897C7.2012 23.4059 7.78389 23.9885 8.50003 23.9885C9.21617 23.9885 9.79886 23.4058 9.79886 22.6897C9.79886 21.9735 9.21623 21.3908 8.50003 21.3908ZM8.50003 23.4597C8.07539 23.4597 7.72995 23.1143 7.72995 22.6897C7.72995 22.265 8.07539 21.9195 8.50003 21.9195C8.92467 21.9195 9.27011 22.265 9.27011 22.6897C9.27011 23.1143 8.92467 23.4597 8.50003 23.4597Z" fill="url(#paint1_linear)"/>
<path d="M6.70227 2.51924H10.2978C10.4438 2.51924 10.5622 2.40085 10.5622 2.25486C10.5622 2.10887 10.4438 1.99049 10.2978 1.99049H6.70227C6.55623 1.99049 6.4379 2.10887 6.4379 2.25486C6.4379 2.40085 6.55623 2.51924 6.70227 2.51924Z" fill="black"/>
<path d="M6.70227 2.51924H10.2978C10.4438 2.51924 10.5622 2.40085 10.5622 2.25486C10.5622 2.10887 10.4438 1.99049 10.2978 1.99049H6.70227C6.55623 1.99049 6.4379 2.10887 6.4379 2.25486C6.4379 2.40085 6.55623 2.51924 6.70227 2.51924Z" fill="url(#paint2_linear)"/>
<path d="M5.75067 2.51924C5.81994 2.51924 5.88815 2.49121 5.93732 2.44204C5.9865 2.39234 6.01505 2.32466 6.01505 2.25486C6.01505 2.18507 5.9865 2.11739 5.93732 2.06768C5.8881 2.01851 5.81989 1.99049 5.75067 1.99049C5.68088 1.99049 5.61315 2.01851 5.5635 2.06768C5.51432 2.11686 5.4863 2.18507 5.4863 2.25486C5.4863 2.32466 5.51432 2.39234 5.5635 2.44204C5.61267 2.49121 5.68088 2.51924 5.75067 2.51924Z" fill="black"/>
<path d="M5.75067 2.51924C5.81994 2.51924 5.88815 2.49121 5.93732 2.44204C5.9865 2.39234 6.01505 2.32466 6.01505 2.25486C6.01505 2.18507 5.9865 2.11739 5.93732 2.06768C5.8881 2.01851 5.81989 1.99049 5.75067 1.99049C5.68088 1.99049 5.61315 2.01851 5.5635 2.06768C5.51432 2.11686 5.4863 2.18507 5.4863 2.25486C5.4863 2.32466 5.51432 2.39234 5.5635 2.44204C5.61267 2.49121 5.68088 2.51924 5.75067 2.51924Z" fill="url(#paint3_linear)"/>
<defs>
<linearGradient id="paint0_linear" x1="8.50003" y1="0" x2="8.50003" y2="25.0001" gradientUnits="userSpaceOnUse">
<stop stop-color="#FF5FF9"/>
<stop offset="1" stop-color="#5BCEDE"/>
</linearGradient>
<linearGradient id="paint1_linear" x1="8.50003" y1="21.3908" x2="8.50003" y2="23.9885" gradientUnits="userSpaceOnUse">
<stop stop-color="#FF5FF9"/>
<stop offset="1" stop-color="#5BCEDE"/>
</linearGradient>
<linearGradient id="paint2_linear" x1="8.50003" y1="1.99049" x2="8.50003" y2="2.51924" gradientUnits="userSpaceOnUse">
<stop stop-color="#FF5FF9"/>
<stop offset="1" stop-color="#5BCEDE"/>
</linearGradient>
<linearGradient id="paint3_linear" x1="5.75067" y1="1.99049" x2="5.75067" y2="2.51924" gradientUnits="userSpaceOnUse">
<stop stop-color="#FF5FF9"/>
<stop offset="1" stop-color="#5BCEDE"/>
</linearGradient>
</defs>
</svg>
