<svg width="25" height="25" viewBox="0 0 25 25" fill="none" xmlns="http://www.w3.org/2000/svg">
<g clip-path="url(#clip0)">
<path d="M22.1354 22.933H2.86465C1.28441 22.933 0 21.6486 0 20.0684V7.04746C0 5.46722 1.28441 4.18301 2.86465 4.18301H9.11465C9.5459 4.18301 9.8959 4.533 9.8959 4.96426C9.8959 5.39551 9.5459 5.74551 9.11465 5.74551H2.86465C2.14691 5.74551 1.5625 6.32973 1.5625 7.04746V20.0684C1.5625 20.7861 2.14691 21.3705 2.86465 21.3705H22.1354C22.8531 21.3705 23.4375 20.7861 23.4375 20.0684V7.04746C23.4375 6.32973 22.8531 5.74551 22.1354 5.74551H15.8854C15.4541 5.74551 15.1041 5.39551 15.1041 4.96426C15.1041 4.533 15.4541 4.18301 15.8854 4.18301H22.1354C23.7156 4.18301 25 5.46722 25 7.04746V20.0684C25 21.6486 23.7156 22.933 22.1354 22.933Z" fill="black"/>
<path d="M22.1354 22.933H2.86465C1.28441 22.933 0 21.6486 0 20.0684V7.04746C0 5.46722 1.28441 4.18301 2.86465 4.18301H9.11465C9.5459 4.18301 9.8959 4.533 9.8959 4.96426C9.8959 5.39551 9.5459 5.74551 9.11465 5.74551H2.86465C2.14691 5.74551 1.5625 6.32973 1.5625 7.04746V20.0684C1.5625 20.7861 2.14691 21.3705 2.86465 21.3705H22.1354C22.8531 21.3705 23.4375 20.7861 23.4375 20.0684V7.04746C23.4375 6.32973 22.8531 5.74551 22.1354 5.74551H15.8854C15.4541 5.74551 15.1041 5.39551 15.1041 4.96426C15.1041 4.533 15.4541 4.18301 15.8854 4.18301H22.1354C23.7156 4.18301 25 5.46722 25 7.04746V20.0684C25 21.6486 23.7156 22.933 22.1354 22.933Z" fill="url(#paint0_linear)"/>
<path d="M14.8438 7.82871H10.1563C9.15108 7.82871 8.3334 7.01103 8.3334 6.00586V3.92246C8.3334 2.91729 9.15108 2.09961 10.1563 2.09961H14.8438C15.8489 2.09961 16.6666 2.91729 16.6666 3.92246V6.00586C16.6666 7.01103 15.8489 7.82871 14.8438 7.82871ZM10.1563 3.66211C10.0124 3.66211 9.8959 3.77884 9.8959 3.92246V6.00586C9.8959 6.14967 10.0124 6.26621 10.1563 6.26621H14.8438C14.9876 6.26621 15.1041 6.14967 15.1041 6.00586V3.92246C15.1041 3.77884 14.9876 3.66211 14.8438 3.66211H10.1563Z" fill="black"/>
<path d="M14.8438 7.82871H10.1563C9.15108 7.82871 8.3334 7.01103 8.3334 6.00586V3.92246C8.3334 2.91729 9.15108 2.09961 10.1563 2.09961H14.8438C15.8489 2.09961 16.6666 2.91729 16.6666 3.92246V6.00586C16.6666 7.01103 15.8489 7.82871 14.8438 7.82871ZM10.1563 3.66211C10.0124 3.66211 9.8959 3.77884 9.8959 3.92246V6.00586C9.8959 6.14967 10.0124 6.26621 10.1563 6.26621H14.8438C14.9876 6.26621 15.1041 6.14967 15.1041 6.00586V3.92246C15.1041 3.77884 14.9876 3.66211 14.8438 3.66211H10.1563Z" fill="url(#paint1_linear)"/>
<path d="M7.81251 14.5996C6.37704 14.5996 5.2084 13.4308 5.2084 11.9955C5.2084 10.56 6.37704 9.39121 7.81251 9.39121C9.24798 9.39121 10.4166 10.56 10.4166 11.9955C10.4166 13.4308 9.24798 14.5996 7.81251 14.5996ZM7.81251 10.9537C7.23859 10.9537 6.7709 11.4214 6.7709 11.9955C6.7709 12.5694 7.23859 13.0371 7.81251 13.0371C8.38643 13.0371 8.85411 12.5694 8.85411 11.9955C8.85411 11.4214 8.38643 10.9537 7.81251 10.9537Z" fill="black"/>
<path d="M7.81251 14.5996C6.37704 14.5996 5.2084 13.4308 5.2084 11.9955C5.2084 10.56 6.37704 9.39121 7.81251 9.39121C9.24798 9.39121 10.4166 10.56 10.4166 11.9955C10.4166 13.4308 9.24798 14.5996 7.81251 14.5996ZM7.81251 10.9537C7.23859 10.9537 6.7709 11.4214 6.7709 11.9955C6.7709 12.5694 7.23859 13.0371 7.81251 13.0371C8.38643 13.0371 8.85411 12.5694 8.85411 11.9955C8.85411 11.4214 8.38643 10.9537 7.81251 10.9537Z" fill="url(#paint2_linear)"/>
<path d="M11.7188 19.808C11.2875 19.808 10.9375 19.458 10.9375 19.0268V18.5059C10.9375 17.7881 10.3531 17.2037 9.63535 17.2037H5.98965C5.27191 17.2037 4.6875 17.7881 4.6875 18.5059V19.0268C4.6875 19.458 4.3375 19.808 3.90625 19.808C3.475 19.808 3.125 19.458 3.125 19.0268V18.5059C3.125 16.9256 4.40941 15.6412 5.98965 15.6412H9.63535C11.2156 15.6412 12.5 16.9256 12.5 18.5059V19.0268C12.5 19.458 12.15 19.808 11.7188 19.808Z" fill="black"/>
<path d="M11.7188 19.808C11.2875 19.808 10.9375 19.458 10.9375 19.0268V18.5059C10.9375 17.7881 10.3531 17.2037 9.63535 17.2037H5.98965C5.27191 17.2037 4.6875 17.7881 4.6875 18.5059V19.0268C4.6875 19.458 4.3375 19.808 3.90625 19.808C3.475 19.808 3.125 19.458 3.125 19.0268V18.5059C3.125 16.9256 4.40941 15.6412 5.98965 15.6412H9.63535C11.2156 15.6412 12.5 16.9256 12.5 18.5059V19.0268C12.5 19.458 12.15 19.808 11.7188 19.808Z" fill="url(#paint3_linear)"/>
<path d="M21.0938 11.4746H15.3647C14.9334 11.4746 14.5834 11.1246 14.5834 10.6934C14.5834 10.2621 14.9334 9.91211 15.3647 9.91211H21.0938C21.525 9.91211 21.875 10.2621 21.875 10.6934C21.875 11.1246 21.525 11.4746 21.0938 11.4746Z" fill="black"/>
<path d="M21.0938 11.4746H15.3647C14.9334 11.4746 14.5834 11.1246 14.5834 10.6934C14.5834 10.2621 14.9334 9.91211 15.3647 9.91211H21.0938C21.525 9.91211 21.875 10.2621 21.875 10.6934C21.875 11.1246 21.525 11.4746 21.0938 11.4746Z" fill="url(#paint4_linear)"/>
<path d="M21.0938 15.6412H15.3647C14.9334 15.6412 14.5834 15.2912 14.5834 14.86C14.5834 14.4287 14.9334 14.0787 15.3647 14.0787H21.0938C21.525 14.0787 21.875 14.4287 21.875 14.86C21.875 15.2912 21.525 15.6412 21.0938 15.6412Z" fill="black"/>
<path d="M21.0938 15.6412H15.3647C14.9334 15.6412 14.5834 15.2912 14.5834 14.86C14.5834 14.4287 14.9334 14.0787 15.3647 14.0787H21.0938C21.525 14.0787 21.875 14.4287 21.875 14.86C21.875 15.2912 21.525 15.6412 21.0938 15.6412Z" fill="url(#paint5_linear)"/>
<path d="M21.0938 19.808H15.3647C14.9334 19.808 14.5834 19.458 14.5834 19.0268C14.5834 18.5955 14.9334 18.2455 15.3647 18.2455H21.0938C21.525 18.2455 21.875 18.5955 21.875 19.0268C21.875 19.458 21.525 19.808 21.0938 19.808Z" fill="black"/>
<path d="M21.0938 19.808H15.3647C14.9334 19.808 14.5834 19.458 14.5834 19.0268C14.5834 18.5955 14.9334 18.2455 15.3647 18.2455H21.0938C21.525 18.2455 21.875 18.5955 21.875 19.0268C21.875 19.458 21.525 19.808 21.0938 19.808Z" fill="url(#paint6_linear)"/>
</g>
<defs>
<linearGradient id="paint0_linear" x1="12.5" y1="4.18301" x2="12.5" y2="22.933" gradientUnits="userSpaceOnUse">
<stop stop-color="#FF5FF9"/>
<stop offset="1" stop-color="#5BCEDE"/>
</linearGradient>
<linearGradient id="paint1_linear" x1="12.5" y1="2.09961" x2="12.5" y2="7.82871" gradientUnits="userSpaceOnUse">
<stop stop-color="#FF5FF9"/>
<stop offset="1" stop-color="#5BCEDE"/>
</linearGradient>
<linearGradient id="paint2_linear" x1="7.81251" y1="9.39121" x2="7.81251" y2="14.5996" gradientUnits="userSpaceOnUse">
<stop stop-color="#FF5FF9"/>
<stop offset="1" stop-color="#5BCEDE"/>
</linearGradient>
<linearGradient id="paint3_linear" x1="7.8125" y1="15.6412" x2="7.8125" y2="19.808" gradientUnits="userSpaceOnUse">
<stop stop-color="#FF5FF9"/>
<stop offset="1" stop-color="#5BCEDE"/>
</linearGradient>
<linearGradient id="paint4_linear" x1="18.2292" y1="9.91211" x2="18.2292" y2="11.4746" gradientUnits="userSpaceOnUse">
<stop stop-color="#FF5FF9"/>
<stop offset="1" stop-color="#5BCEDE"/>
</linearGradient>
<linearGradient id="paint5_linear" x1="18.2292" y1="14.0787" x2="18.2292" y2="15.6412" gradientUnits="userSpaceOnUse">
<stop stop-color="#FF5FF9"/>
<stop offset="1" stop-color="#5BCEDE"/>
</linearGradient>
<linearGradient id="paint6_linear" x1="18.2292" y1="18.2455" x2="18.2292" y2="19.808" gradientUnits="userSpaceOnUse">
<stop stop-color="#FF5FF9"/>
<stop offset="1" stop-color="#5BCEDE"/>
</linearGradient>
<clipPath id="clip0">
<rect width="25" height="25" fill="white"/>
</clipPath>
</defs>
</svg>
