<svg width="25" height="25" viewBox="0 0 25 25" fill="none" xmlns="http://www.w3.org/2000/svg">
<path d="M20.5593 20.256C20.3571 20.256 20.1931 20.42 20.1931 20.6222V24.0653C20.1931 24.1768 20.1024 24.2675 19.9909 24.2675H18.0223V17.0557C18.0223 16.8535 17.8583 16.6895 17.6561 16.6895C17.4538 16.6895 17.2899 16.8535 17.2899 17.0557V24.2675H13.3258L14.4753 23.0029C14.6009 22.8647 14.6601 22.6679 14.6337 22.4762C14.6332 22.4725 14.6326 22.4688 14.632 22.465L13.5371 15.9969L13.8321 15.5529C13.9952 15.6687 14.1208 15.7802 14.3564 15.7802C14.5961 15.7802 14.8201 15.6461 14.9304 15.4253V15.4252L16.0852 13.1108L18.7158 14.1296C18.811 14.1704 20.193 14.7928 20.193 16.4361V18.9132C20.1929 19.1154 20.3569 19.2794 20.5592 19.2794C20.7615 19.2794 20.9254 19.1154 20.9254 18.9132V16.4361C20.9254 14.2709 19.0715 13.4838 18.9926 13.4514C18.9903 13.4504 18.9879 13.4495 18.9856 13.4486L14.6073 11.753V10.7261C15.3027 10.1853 15.7848 9.38359 15.9059 8.46895C16.2526 8.44453 16.5743 8.31504 16.8371 8.08911C17.1802 7.79404 17.3771 7.3646 17.3771 6.91108C17.3771 6.53472 17.2413 6.17534 16.9993 5.89531V4.53872C16.9992 2.03608 14.9632 0 12.4606 0C9.95793 0 7.9219 2.03608 7.9219 4.53872V5.93086C7.67732 6.20806 7.54431 6.54927 7.54431 6.91104C7.54431 7.3647 7.74109 7.79409 8.0843 8.08921C8.34685 8.31504 8.66838 8.44438 9.01502 8.46885C9.13704 9.40063 9.63328 10.2322 10.3879 10.7803V11.753L6.01433 13.4485C6.01204 13.4494 6.00974 13.4503 6.00745 13.4513C5.92849 13.4837 4.07458 14.2708 4.07458 16.436V24.0652C4.07458 24.5806 4.49387 24.9999 5.00925 24.9999H8.49836C8.70061 24.9999 8.86458 24.8359 8.86458 24.6336C8.86458 24.4314 8.70061 24.2674 8.49836 24.2674H7.71042V17.0557C7.71042 16.8535 7.54646 16.6895 7.34421 16.6895C7.14197 16.6895 6.978 16.8535 6.978 17.0557V24.2675H5.0093C4.89783 24.2675 4.8071 24.1768 4.8071 24.0653V16.4361C4.8071 14.7872 6.19836 14.1663 6.28381 14.1297L8.91243 13.1107L10.0673 15.4252C10.1778 15.6466 10.4022 15.7802 10.6413 15.7802C10.8758 15.7802 11.0002 15.6704 11.1657 15.5529L11.4606 15.9969L10.3658 22.4651C10.3652 22.4688 10.3647 22.4724 10.3641 22.4761C10.3377 22.6677 10.3969 22.8646 10.5225 23.0029L11.6721 24.2676H10.2075C10.0052 24.2676 9.84128 24.4315 9.84128 24.6338C9.84128 24.836 10.0052 25 10.2075 25H19.9909C20.5063 25 20.9256 24.5807 20.9256 24.0653V20.6223C20.9255 20.42 20.7615 20.256 20.5593 20.256ZM15.3992 12.8452L14.3226 15.0029C14.2958 14.9839 13.7253 14.5785 13.0278 14.0833C13.3304 13.7097 12.9764 14.1467 14.3576 12.4418L15.3992 12.8452ZM13.2345 15.1286L12.9553 15.5488H12.0421L11.7629 15.1286L12.4988 14.606L13.2345 15.1286ZM11.1203 11.8711V11.1858C11.5652 11.3651 12.0407 11.4483 12.5051 11.4483C12.9852 11.4483 13.456 11.3459 13.8748 11.1628V11.8741L12.4988 13.5726L11.1203 11.8711ZM16.6446 6.91108C16.6446 7.15098 16.5407 7.37798 16.3595 7.53379C16.2397 7.63682 16.095 7.70269 15.9366 7.72847V6.09385C16.3575 6.16221 16.6446 6.51133 16.6446 6.91108ZM8.98474 7.72847C8.55906 7.65938 8.27673 7.30742 8.27673 6.91104C8.27673 6.51953 8.60129 6.20088 8.98474 6.11226V7.72847ZM9.00442 5.36602C8.88777 5.37939 8.75408 5.41099 8.65442 5.44487V4.53872C8.65442 2.43994 10.3618 0.732471 12.4606 0.732471C14.5594 0.732471 16.2668 2.43994 16.2668 4.53872V5.41973C16.1604 5.38735 16.05 5.36597 15.9366 5.35591C15.9366 5.00254 15.9397 5.0707 14.7837 3.82788C14.5711 3.59946 14.2195 3.55161 13.9518 3.72646C12.676 4.55991 11.1196 4.97861 9.68352 4.87549C9.36853 4.8519 9.08162 5.05938 9.00442 5.36602ZM9.71721 8.0168V5.73203V5.61167C11.298 5.70425 12.9554 5.23462 14.2943 4.37715C14.8245 4.94639 15.1116 5.24497 15.2042 5.35854C15.2042 5.64585 15.2042 7.68789 15.2042 8.01675C15.2042 9.50342 13.992 10.7158 12.5051 10.7158C10.8355 10.7158 9.71721 9.42061 9.71721 8.0168ZM10.675 15.0029L9.59836 12.8452L10.6381 12.4425L11.9682 14.0843C11.2918 14.5646 10.7364 14.9593 10.675 15.0029ZM11.0951 22.544L12.1552 16.2812H12.8422L13.9022 22.544L12.4987 24.0881L11.0951 22.544Z" fill="black"/>
<path d="M20.5593 20.256C20.3571 20.256 20.1931 20.42 20.1931 20.6222V24.0653C20.1931 24.1768 20.1024 24.2675 19.9909 24.2675H18.0223V17.0557C18.0223 16.8535 17.8583 16.6895 17.6561 16.6895C17.4538 16.6895 17.2899 16.8535 17.2899 17.0557V24.2675H13.3258L14.4753 23.0029C14.6009 22.8647 14.6601 22.6679 14.6337 22.4762C14.6332 22.4725 14.6326 22.4688 14.632 22.465L13.5371 15.9969L13.8321 15.5529C13.9952 15.6687 14.1208 15.7802 14.3564 15.7802C14.5961 15.7802 14.8201 15.6461 14.9304 15.4253V15.4252L16.0852 13.1108L18.7158 14.1296C18.811 14.1704 20.193 14.7928 20.193 16.4361V18.9132C20.1929 19.1154 20.3569 19.2794 20.5592 19.2794C20.7615 19.2794 20.9254 19.1154 20.9254 18.9132V16.4361C20.9254 14.2709 19.0715 13.4838 18.9926 13.4514C18.9903 13.4504 18.9879 13.4495 18.9856 13.4486L14.6073 11.753V10.7261C15.3027 10.1853 15.7848 9.38359 15.9059 8.46895C16.2526 8.44453 16.5743 8.31504 16.8371 8.08911C17.1802 7.79404 17.3771 7.3646 17.3771 6.91108C17.3771 6.53472 17.2413 6.17534 16.9993 5.89531V4.53872C16.9992 2.03608 14.9632 0 12.4606 0C9.95793 0 7.9219 2.03608 7.9219 4.53872V5.93086C7.67732 6.20806 7.54431 6.54927 7.54431 6.91104C7.54431 7.3647 7.74109 7.79409 8.0843 8.08921C8.34685 8.31504 8.66838 8.44438 9.01502 8.46885C9.13704 9.40063 9.63328 10.2322 10.3879 10.7803V11.753L6.01433 13.4485C6.01204 13.4494 6.00974 13.4503 6.00745 13.4513C5.92849 13.4837 4.07458 14.2708 4.07458 16.436V24.0652C4.07458 24.5806 4.49387 24.9999 5.00925 24.9999H8.49836C8.70061 24.9999 8.86458 24.8359 8.86458 24.6336C8.86458 24.4314 8.70061 24.2674 8.49836 24.2674H7.71042V17.0557C7.71042 16.8535 7.54646 16.6895 7.34421 16.6895C7.14197 16.6895 6.978 16.8535 6.978 17.0557V24.2675H5.0093C4.89783 24.2675 4.8071 24.1768 4.8071 24.0653V16.4361C4.8071 14.7872 6.19836 14.1663 6.28381 14.1297L8.91243 13.1107L10.0673 15.4252C10.1778 15.6466 10.4022 15.7802 10.6413 15.7802C10.8758 15.7802 11.0002 15.6704 11.1657 15.5529L11.4606 15.9969L10.3658 22.4651C10.3652 22.4688 10.3647 22.4724 10.3641 22.4761C10.3377 22.6677 10.3969 22.8646 10.5225 23.0029L11.6721 24.2676H10.2075C10.0052 24.2676 9.84128 24.4315 9.84128 24.6338C9.84128 24.836 10.0052 25 10.2075 25H19.9909C20.5063 25 20.9256 24.5807 20.9256 24.0653V20.6223C20.9255 20.42 20.7615 20.256 20.5593 20.256ZM15.3992 12.8452L14.3226 15.0029C14.2958 14.9839 13.7253 14.5785 13.0278 14.0833C13.3304 13.7097 12.9764 14.1467 14.3576 12.4418L15.3992 12.8452ZM13.2345 15.1286L12.9553 15.5488H12.0421L11.7629 15.1286L12.4988 14.606L13.2345 15.1286ZM11.1203 11.8711V11.1858C11.5652 11.3651 12.0407 11.4483 12.5051 11.4483C12.9852 11.4483 13.456 11.3459 13.8748 11.1628V11.8741L12.4988 13.5726L11.1203 11.8711ZM16.6446 6.91108C16.6446 7.15098 16.5407 7.37798 16.3595 7.53379C16.2397 7.63682 16.095 7.70269 15.9366 7.72847V6.09385C16.3575 6.16221 16.6446 6.51133 16.6446 6.91108ZM8.98474 7.72847C8.55906 7.65938 8.27673 7.30742 8.27673 6.91104C8.27673 6.51953 8.60129 6.20088 8.98474 6.11226V7.72847ZM9.00442 5.36602C8.88777 5.37939 8.75408 5.41099 8.65442 5.44487V4.53872C8.65442 2.43994 10.3618 0.732471 12.4606 0.732471C14.5594 0.732471 16.2668 2.43994 16.2668 4.53872V5.41973C16.1604 5.38735 16.05 5.36597 15.9366 5.35591C15.9366 5.00254 15.9397 5.0707 14.7837 3.82788C14.5711 3.59946 14.2195 3.55161 13.9518 3.72646C12.676 4.55991 11.1196 4.97861 9.68352 4.87549C9.36853 4.8519 9.08162 5.05938 9.00442 5.36602ZM9.71721 8.0168V5.73203V5.61167C11.298 5.70425 12.9554 5.23462 14.2943 4.37715C14.8245 4.94639 15.1116 5.24497 15.2042 5.35854C15.2042 5.64585 15.2042 7.68789 15.2042 8.01675C15.2042 9.50342 13.992 10.7158 12.5051 10.7158C10.8355 10.7158 9.71721 9.42061 9.71721 8.0168ZM10.675 15.0029L9.59836 12.8452L10.6381 12.4425L11.9682 14.0843C11.2918 14.5646 10.7364 14.9593 10.675 15.0029ZM11.0951 22.544L12.1552 16.2812H12.8422L13.9022 22.544L12.4987 24.0881L11.0951 22.544Z" fill="url(#paint0_linear)"/>
<defs>
<linearGradient id="paint0_linear" x1="12.5001" y1="0" x2="12.5001" y2="25" gradientUnits="userSpaceOnUse">
<stop stop-color="#FF5FF9"/>
<stop offset="1" stop-color="#5BCEDE"/>
</linearGradient>
</defs>
</svg>
