<svg width="25" height="25" viewBox="0 0 25 25" fill="none" xmlns="http://www.w3.org/2000/svg">
<path d="M12.5 7.44434C8.95929 7.44434 6.07867 10.3249 6.07867 13.8657C6.07867 17.4064 8.95929 20.2869 12.5 20.2869C16.0406 20.2869 18.9213 17.4064 18.9213 13.8657C18.9213 10.3249 16.0407 7.44434 12.5 7.44434ZM12.5 19.2645C9.52301 19.2645 7.10104 16.8426 7.10104 13.8656C7.10104 10.8886 9.52296 8.46665 12.5 8.46665C15.477 8.46665 17.8989 10.8886 17.8989 13.8656C17.8989 16.8426 15.477 19.2645 12.5 19.2645Z" fill="black"/>
<path d="M12.5 7.44434C8.95929 7.44434 6.07867 10.3249 6.07867 13.8657C6.07867 17.4064 8.95929 20.2869 12.5 20.2869C16.0406 20.2869 18.9213 17.4064 18.9213 13.8657C18.9213 10.3249 16.0407 7.44434 12.5 7.44434ZM12.5 19.2645C9.52301 19.2645 7.10104 16.8426 7.10104 13.8656C7.10104 10.8886 9.52296 8.46665 12.5 8.46665C15.477 8.46665 17.8989 10.8886 17.8989 13.8656C17.8989 16.8426 15.477 19.2645 12.5 19.2645Z" fill="url(#paint0_linear)"/>
<path d="M12.4999 9.85909C10.2907 9.85909 8.49335 11.6564 8.49335 13.8657C8.49335 16.0749 10.2907 17.8722 12.4999 17.8722C14.7092 17.8722 16.5065 16.0749 16.5065 13.8657C16.5065 11.6565 14.7092 9.85909 12.4999 9.85909ZM12.4999 16.9036C10.8248 16.9036 9.46195 15.5408 9.46195 13.8657C9.46195 12.1905 10.8248 10.8277 12.4999 10.8277C14.1751 10.8277 15.5379 12.1905 15.5379 13.8657C15.538 15.5408 14.1751 16.9036 12.4999 16.9036Z" fill="black"/>
<path d="M12.4999 9.85909C10.2907 9.85909 8.49335 11.6564 8.49335 13.8657C8.49335 16.0749 10.2907 17.8722 12.4999 17.8722C14.7092 17.8722 16.5065 16.0749 16.5065 13.8657C16.5065 11.6565 14.7092 9.85909 12.4999 9.85909ZM12.4999 16.9036C10.8248 16.9036 9.46195 15.5408 9.46195 13.8657C9.46195 12.1905 10.8248 10.8277 12.4999 10.8277C14.1751 10.8277 15.5379 12.1905 15.5379 13.8657C15.538 15.5408 14.1751 16.9036 12.4999 16.9036Z" fill="url(#paint1_linear)"/>
<path d="M23.3857 5.58271H16.8034L16.1311 3.75166C15.9334 3.21313 15.4152 2.85136 14.8415 2.85136H10.1585C9.58482 2.85136 9.0666 3.21318 8.8689 3.75166L8.19658 5.58266H5.95996V4.86508C5.95996 4.28652 5.48931 3.81577 4.91064 3.81577H3.36182C2.78325 3.81577 2.3125 4.28652 2.3125 4.86508V5.58271H1.61431C0.72417 5.58271 0 6.30688 0 7.19702V20.5343C0 21.4245 0.72417 22.1486 1.61431 22.1486H23.3857C24.2758 22.1486 25 21.4245 25 20.5343V7.19702C25 6.30688 24.2758 5.58271 23.3857 5.58271ZM9.8791 4.1226C9.92192 4.00595 10.0342 3.92758 10.1584 3.92758H14.8415C14.9657 3.92758 15.078 4.00595 15.1208 4.1226L15.6569 5.58271H9.34302L9.8791 4.1226ZM3.33496 4.86508C3.33496 4.85029 3.34702 4.83818 3.36187 4.83818H4.91069C4.92554 4.83818 4.9376 4.85029 4.9376 4.86508V5.58271H3.33496V4.86508ZM1.07622 9.65493H2.67012V18.0763H1.07622V9.65493ZM23.9237 20.5343C23.9238 20.8311 23.6824 21.0724 23.3857 21.0724H1.61431C1.31758 21.0724 1.07622 20.831 1.07622 20.5343V19.1525H3.2082C3.50537 19.1525 3.74629 18.9116 3.74629 18.6144V9.11684C3.74629 8.81972 3.50537 8.57876 3.2082 8.57876H1.07622V7.19697C1.07622 6.90024 1.31763 6.65888 1.61431 6.65888H16.4237C16.4251 6.65888 16.4264 6.65903 16.4278 6.65903C16.429 6.65903 16.4302 6.65888 16.4314 6.65888H23.3857C23.6824 6.65888 23.9238 6.90029 23.9238 7.19697V8.57876H21.7918C21.4946 8.57876 21.2537 8.81972 21.2537 9.11684V18.6144C21.2537 18.9116 21.4946 19.1525 21.7918 19.1525H23.9238V20.5343H23.9237ZM23.9238 18.0763H22.3299V9.65493H23.9238V18.0763Z" fill="black"/>
<path d="M23.3857 5.58271H16.8034L16.1311 3.75166C15.9334 3.21313 15.4152 2.85136 14.8415 2.85136H10.1585C9.58482 2.85136 9.0666 3.21318 8.8689 3.75166L8.19658 5.58266H5.95996V4.86508C5.95996 4.28652 5.48931 3.81577 4.91064 3.81577H3.36182C2.78325 3.81577 2.3125 4.28652 2.3125 4.86508V5.58271H1.61431C0.72417 5.58271 0 6.30688 0 7.19702V20.5343C0 21.4245 0.72417 22.1486 1.61431 22.1486H23.3857C24.2758 22.1486 25 21.4245 25 20.5343V7.19702C25 6.30688 24.2758 5.58271 23.3857 5.58271ZM9.8791 4.1226C9.92192 4.00595 10.0342 3.92758 10.1584 3.92758H14.8415C14.9657 3.92758 15.078 4.00595 15.1208 4.1226L15.6569 5.58271H9.34302L9.8791 4.1226ZM3.33496 4.86508C3.33496 4.85029 3.34702 4.83818 3.36187 4.83818H4.91069C4.92554 4.83818 4.9376 4.85029 4.9376 4.86508V5.58271H3.33496V4.86508ZM1.07622 9.65493H2.67012V18.0763H1.07622V9.65493ZM23.9237 20.5343C23.9238 20.8311 23.6824 21.0724 23.3857 21.0724H1.61431C1.31758 21.0724 1.07622 20.831 1.07622 20.5343V19.1525H3.2082C3.50537 19.1525 3.74629 18.9116 3.74629 18.6144V9.11684C3.74629 8.81972 3.50537 8.57876 3.2082 8.57876H1.07622V7.19697C1.07622 6.90024 1.31763 6.65888 1.61431 6.65888H16.4237C16.4251 6.65888 16.4264 6.65903 16.4278 6.65903C16.429 6.65903 16.4302 6.65888 16.4314 6.65888H23.3857C23.6824 6.65888 23.9238 6.90029 23.9238 7.19697V8.57876H21.7918C21.4946 8.57876 21.2537 8.81972 21.2537 9.11684V18.6144C21.2537 18.9116 21.4946 19.1525 21.7918 19.1525H23.9238V20.5343H23.9237ZM23.9238 18.0763H22.3299V9.65493H23.9238V18.0763Z" fill="url(#paint2_linear)"/>
<path d="M12.5 11.886C11.4083 11.886 10.5203 12.7741 10.5203 13.8657C10.5203 14.1332 10.7371 14.35 11.0045 14.35C11.272 14.35 11.4888 14.1332 11.4888 13.8657C11.4888 13.3082 11.9424 12.8546 12.4999 12.8546C12.7674 12.8546 12.9842 12.6378 12.9842 12.3703C12.9842 12.1028 12.7675 11.886 12.5 11.886Z" fill="black"/>
<path d="M12.5 11.886C11.4083 11.886 10.5203 12.7741 10.5203 13.8657C10.5203 14.1332 10.7371 14.35 11.0045 14.35C11.272 14.35 11.4888 14.1332 11.4888 13.8657C11.4888 13.3082 11.9424 12.8546 12.4999 12.8546C12.7674 12.8546 12.9842 12.6378 12.9842 12.3703C12.9842 12.1028 12.7675 11.886 12.5 11.886Z" fill="url(#paint3_linear)"/>
<defs>
<linearGradient id="paint0_linear" x1="12.5" y1="7.44434" x2="12.5" y2="20.2869" gradientUnits="userSpaceOnUse">
<stop stop-color="#FF5FF9"/>
<stop offset="1" stop-color="#5BCEDE"/>
</linearGradient>
<linearGradient id="paint1_linear" x1="12.4999" y1="9.85909" x2="12.4999" y2="17.8722" gradientUnits="userSpaceOnUse">
<stop stop-color="#FF5FF9"/>
<stop offset="1" stop-color="#5BCEDE"/>
</linearGradient>
<linearGradient id="paint2_linear" x1="12.5" y1="2.85136" x2="12.5" y2="22.1486" gradientUnits="userSpaceOnUse">
<stop stop-color="#FF5FF9"/>
<stop offset="1" stop-color="#5BCEDE"/>
</linearGradient>
<linearGradient id="paint3_linear" x1="11.7522" y1="11.886" x2="11.7522" y2="14.35" gradientUnits="userSpaceOnUse">
<stop stop-color="#FF5FF9"/>
<stop offset="1" stop-color="#5BCEDE"/>
</linearGradient>
</defs>
</svg>
